<svg xmlns="http://www.w3.org/2000/svg" xmlns:xlink="http://www.w3.org/1999/xlink" viewBox="0,0,256,256" width="64px" height="64px"><g fill="none" fill-rule="nonzero" stroke="none" stroke-width="1" stroke-linecap="butt" stroke-linejoin="miter" stroke-miterlimit="10" stroke-dasharray="" stroke-dashoffset="0" font-family="none" font-weight="none" font-size="none" text-anchor="none" style="mix-blend-mode: normal"><g transform="scale(4,4)"><g id="_x32_0_Directory_Office_Folder_File_Paper"><path d="M57,55h-51c-1.7,0 -3,-1.3 -3,-3v-38c0,-1.7 1.3,-3 3,-3h15l9,6h24c1.7,0 3,1.3 3,3z" fill="#c968be"></path><path d="M6,11h16l7,7h-26v-4c0,-1.7 1.3,-3 3,-3z" fill="#fff7f0"></path><path d="M60,55h-3v-34h4c1.1,0 2,0.9 2,2v29c0,1.7 -1.3,3 -3,3z" fill="#cda1a7"></path><path d="M57,55h-51c-1.7,0 -3,-1.3 -3,-3v-7h54z" fill="#efd8be"></path><path d="M31,24h-6c-0.6,0 -1,0.4 -1,1c0,0.6 0.4,1 1,1h6c0.6,0 1,-0.4 1,-1c0,-0.6 -0.4,-1 -1,-1zM11,26h10c0.6,0 1,-0.4 1,-1c0,-0.6 -0.4,-1 -1,-1h-10c-0.6,0 -1,0.4 -1,1c0,0.6 0.4,1 1,1zM15,28h-4c-0.6,0 -1,0.4 -1,1c0,0.6 0.4,1 1,1h4c0.6,0 1,-0.4 1,-1c0,-0.6 -0.4,-1 -1,-1zM26,28h-7c-0.6,0 -1,0.4 -1,1c0,0.6 0.4,1 1,1h7c0.6,0 1,-0.4 1,-1c0,-0.6 -0.4,-1 -1,-1z" fill="#f75f83"></path><path d="M53,44h-4c-0.6,0 -1,0.4 -1,1c0,0.6 0.4,1 1,1h4c0.6,0 1,-0.4 1,-1c0,-0.6 -0.4,-1 -1,-1z" fill="#8d6c9f"></path><path d="M61,20h-3v-1c0,-1.7 -1.3,-3 -3,-3h-25.3c-0.8,0 -1.5,-0.3 -2.1,-0.9l-3.7,-3.7c-0.9,-0.9 -2.2,-1.4 -3.5,-1.4h-15.4c-1.7,0 -3,1.3 -3,3v39c0,2.2 1.8,4 4,4h53h1c2.2,0 4,-1.8 4,-4v-29c0,-1.7 -1.3,-3 -3,-3zM6,54c-1.1,0 -2,-0.9 -2,-2v-6h41c0.6,0 1,-0.4 1,-1c0,-0.6 -0.4,-1 -1,-1h-41v-31c0,-0.6 0.4,-1 1,-1h15.4c0.8,0 1.5,0.3 2.1,0.9l3.7,3.7c0.9,0.9 2.2,1.4 3.5,1.4h25.3c0.6,0 1,0.4 1,1v33c0,0.6 0.2,1.3 0.6,2zM62,52c0,1.1 -0.9,2 -2,2c-1.2,0 -2,-1.4 -2,-2v-30h3c0.6,0 1,0.4 1,1z" fill="#8d6c9f"></path><path d="M7,48c-0.6,0 -1,0.4 -1,1v2c0,0.6 0.4,1 1,1c0.6,0 1,-0.4 1,-1v-2c0,-0.6 -0.4,-1 -1,-1zM12,48c-0.6,0 -1,0.4 -1,1v2c0,0.6 0.4,1 1,1c0.6,0 1,-0.4 1,-1v-2c0,-0.6 -0.4,-1 -1,-1zM17,48c-0.6,0 -1,0.4 -1,1v2c0,0.6 0.4,1 1,1c0.6,0 1,-0.4 1,-1v-2c0,-0.6 -0.4,-1 -1,-1zM22,48c-0.6,0 -1,0.4 -1,1v2c0,0.6 0.4,1 1,1c0.6,0 1,-0.4 1,-1v-2c0,-0.6 -0.4,-1 -1,-1zM27,48c-0.6,0 -1,0.4 -1,1v2c0,0.6 0.4,1 1,1c0.6,0 1,-0.4 1,-1v-2c0,-0.6 -0.4,-1 -1,-1zM32,48c-0.6,0 -1,0.4 -1,1v2c0,0.6 0.4,1 1,1c0.6,0 1,-0.4 1,-1v-2c0,-0.6 -0.4,-1 -1,-1zM37,48c-0.6,0 -1,0.4 -1,1v2c0,0.6 0.4,1 1,1c0.6,0 1,-0.4 1,-1v-2c0,-0.6 -0.4,-1 -1,-1zM42,48c-0.6,0 -1,0.4 -1,1v2c0,0.6 0.4,1 1,1c0.6,0 1,-0.4 1,-1v-2c0,-0.6 -0.4,-1 -1,-1zM47,48c-0.6,0 -1,0.4 -1,1v2c0,0.6 0.4,1 1,1c0.6,0 1,-0.4 1,-1v-2c0,-0.6 -0.4,-1 -1,-1zM52,48c-0.6,0 -1,0.4 -1,1v2c0,0.6 0.4,1 1,1c0.6,0 1,-0.4 1,-1v-2c0,-0.6 -0.4,-1 -1,-1z" fill="#8d6c9f"></path></g></g></g></svg>